<svg width="14" height="14" viewBox="0 0 14 14" fill="none" xmlns="http://www.w3.org/2000/svg">
<path fill-rule="evenodd" clip-rule="evenodd" d="M3.83333 2.00008C2.45674 2.00008 1.33333 3.12457 1.33333 4.52091C1.33333 5.40778 1.85367 6.32244 2.67469 7.27252C4.01236 8.82046 5.5613 10.4381 7 11.7658C8.4387 10.4381 9.98764 8.82046 11.3253 7.27252C12.1463 6.32244 12.6667 5.40778 12.6667 4.52091C12.6667 3.12457 11.5433 2.00008 10.1667 2.00008C9.57187 2.00008 9.02677 2.20871 8.59715 2.55865C8.14382 2.92789 7.90558 3.19316 7.77318 3.35573C7.73902 3.39769 7.7102 3.43489 7.68383 3.46936C7.67924 3.47537 7.67429 3.48186 7.66911 3.48866C7.64845 3.51577 7.62399 3.54787 7.60301 3.574C7.58036 3.6022 7.52914 3.66556 7.45998 3.72332C7.39028 3.78152 7.22372 3.90074 6.9795 3.89594C6.73823 3.8912 6.57792 3.7681 6.51314 3.71128C6.44737 3.65359 6.3984 3.59094 6.37666 3.56298C6.34205 3.51847 6.32362 3.49325 6.30622 3.46945C6.28384 3.43884 6.26319 3.41059 6.21206 3.34667C6.08329 3.18569 5.85006 2.9229 5.40285 2.55865C4.97323 2.20871 4.42813 2.00008 3.83333 2.00008ZM0 4.52091C0 2.39645 1.71213 0.666748 3.83333 0.666748C4.74678 0.666748 5.58679 0.988801 6.2449 1.52485C6.57567 1.79427 6.81746 2.02585 6.99811 2.21932C7.17992 2.02678 7.42305 1.79531 7.7551 1.52485C8.41321 0.988801 9.25322 0.666748 10.1667 0.666748C12.2879 0.666748 14 2.39645 14 4.52091C14 5.90988 13.2027 7.13927 12.3341 8.14431C10.8961 9.8084 9.21641 11.5548 7.66966 12.9605C7.28974 13.3058 6.71026 13.3058 6.33034 12.9605C4.78359 11.5548 3.1039 9.8084 1.66585 8.14431C0.797334 7.13927 0 5.90988 0 4.52091Z" fill="#2B2D33"/>
</svg>
